<?xml version="1.0" encoding="UTF-8" standalone="no"?>
<!DOCTYPE svg PUBLIC "-//W3C//DTD SVG 1.1//EN" "http://www.w3.org/Graphics/SVG/1.1/DTD/svg11.dtd">
<svg width="100%" height="100%" viewBox="0 0 600 400" version="1.1" xmlns="http://www.w3.org/2000/svg" xmlns:xlink="http://www.w3.org/1999/xlink" xml:space="preserve" xmlns:serif="http://www.serif.com/" style="fill-rule:evenodd;clip-rule:evenodd;stroke-linejoin:round;stroke-miterlimit:2;">
    <g id="Layer1">
        <rect x="-1028.23" y="-248.288" width="1712.17" height="4055.19" style="fill:#3d4345;"/>
        <rect x="-13.101" y="-13.059" width="626.202" height="426.201" style="fill:url(#_Radial1);"/>
        <g id="CorelEMF" serif:id="CorelEMF">
        </g>
        <g id="CorelEMF1" serif:id="CorelEMF">
        </g>
        <g id="CorelEMF2" serif:id="CorelEMF">
        </g>
        <path d="M175.715,171.461L176.843,165.068L178.723,165.068C180.227,165.444 181.731,166.197 182.483,166.573C183.236,167.325 183.988,168.453 183.988,170.333C183.988,171.837 183.612,174.47 183.236,178.23C182.483,182.367 181.731,185.375 181.355,186.879C180.979,188.76 180.227,189.888 179.851,190.64C179.099,191.392 178.347,191.768 177.595,192.144C176.843,192.52 176.091,192.52 174.962,192.52C173.834,192.144 171.954,192.144 169.698,191.768C167.065,191.016 165.185,190.64 164.433,190.64C163.305,190.264 162.553,189.888 161.801,189.512C160.672,188.76 159.92,187.255 159.92,185.375C159.92,183.495 160.296,179.734 161.048,174.47C161.801,171.837 162.177,169.581 162.553,168.453C162.929,167.325 163.305,166.197 163.681,165.82C164.433,164.692 165.185,164.316 165.937,163.94L170.074,163.94C170.074,163.94 170.45,164.316 171.202,164.316L170.074,170.709L168.57,170.709C168.193,170.709 168.193,170.709 167.817,171.085C167.817,171.085 167.441,171.837 167.065,172.589C166.689,173.718 166.689,175.222 166.313,177.102C165.937,179.358 165.561,180.863 165.561,181.615C165.561,182.367 165.561,182.743 165.937,183.119C165.937,183.495 166.689,183.871 167.065,184.247C167.817,184.623 168.946,184.999 170.826,184.999C172.33,185.375 173.458,185.751 174.21,185.375C174.962,185.375 175.338,185.375 175.715,184.999C176.091,184.623 176.467,184.247 176.467,183.495C176.843,182.743 177.219,181.239 177.595,179.358C177.971,176.726 177.971,175.222 178.347,174.094C178.347,173.342 178.347,172.965 177.971,172.589C177.595,172.213 176.843,171.837 175.715,171.461ZM170.45,206.81C173.458,206.81 175.715,209.067 175.715,212.075C175.715,215.083 173.458,217.34 170.45,217.34C167.817,217.34 165.561,215.083 165.561,212.075C165.561,209.067 167.817,206.81 170.45,206.81ZM428.046,206.81C431.054,206.81 433.311,209.067 433.311,212.075C433.311,215.083 431.054,217.34 428.046,217.34C425.414,217.34 422.781,215.083 422.781,212.075C422.781,209.067 425.414,206.81 428.046,206.81ZM170.45,235.39L172.706,241.407C171.578,241.783 171.202,242.159 171.202,242.535C170.826,242.911 171.202,243.287 171.202,244.039C171.202,244.416 171.954,245.92 172.706,248.176C173.834,250.808 174.586,252.313 174.586,252.689C174.962,253.065 174.962,253.441 175.338,253.817C175.715,254.193 176.467,254.193 177.219,253.817C177.595,253.817 177.971,253.441 177.971,253.065C177.971,252.689 177.971,251.937 177.595,250.808C177.219,250.056 176.843,248.552 176.091,246.296C174.962,243.663 174.586,242.159 174.21,241.407C173.834,239.903 173.458,238.775 173.458,238.023C173.458,236.894 173.458,236.142 173.834,235.766C174.21,234.638 175.715,233.886 177.595,232.758C179.851,232.006 181.355,232.006 182.86,232.382C183.612,232.758 184.74,233.51 185.116,234.638C185.868,236.142 186.996,238.775 188.876,242.911C190.005,245.544 190.757,247.8 190.757,248.928C191.509,250.808 191.509,252.313 190.757,253.065C190.381,254.193 189.252,254.945 187.372,255.697C187.372,255.697 186.996,256.073 186.62,256.073L184.364,250.432C184.74,250.056 185.116,249.68 185.492,249.68L185.492,248.928C185.868,248.928 185.492,248.176 185.492,247.424C185.116,247.048 184.74,245.544 183.988,243.287C182.86,241.031 182.107,239.527 181.731,238.775C181.355,238.399 180.979,238.399 180.227,238.775C179.475,238.775 179.099,239.151 179.099,239.903C179.099,240.279 179.851,242.535 181.355,246.296C182.483,249.68 183.236,251.937 183.612,252.689C183.988,253.817 183.988,254.945 183.612,255.697C183.612,256.449 183.236,257.201 182.483,257.953C182.107,258.329 180.979,259.082 179.475,259.458C177.595,260.21 176.091,260.586 174.962,260.586C174.21,260.586 173.458,260.21 173.082,259.458C172.33,259.082 171.954,258.329 171.202,256.825C170.826,255.697 169.698,253.441 168.193,249.68C167.065,247.048 166.313,244.792 165.937,243.287C165.561,241.783 165.561,240.655 165.561,239.903C165.561,238.775 165.937,238.023 166.689,237.647C167.065,236.894 168.193,236.518 169.698,235.766L170.45,235.39ZM195.269,258.329L199.03,263.97L185.868,272.243L193.765,285.029L189.252,287.662L177.595,269.611L195.269,258.329ZM219.713,288.038C223.097,291.422 225.354,293.302 226.482,294.807C227.986,296.687 228.362,298.567 227.234,300.447C226.482,301.576 224.977,303.456 222.721,306.088C220.465,308.344 218.961,309.849 217.456,310.601C215.952,311.729 214.072,311.353 211.816,309.849C210.687,309.097 208.055,306.84 205.047,303.832C201.662,300.823 199.406,298.567 198.278,297.063C196.773,295.183 196.397,293.302 197.526,291.422C198.278,290.294 199.782,288.414 202.038,285.781C204.295,283.525 205.799,282.021 207.303,281.269C208.807,280.141 210.687,280.517 212.944,282.021C214.072,282.773 216.704,285.029 219.713,288.038ZM215.952,292.174C213.696,289.918 212.192,288.414 211.44,288.038C210.687,287.662 209.935,287.662 209.559,288.038C208.807,288.414 207.679,289.166 206.175,290.67C205.423,291.798 204.671,292.55 204.295,292.926C203.919,294.054 203.919,294.807 204.671,295.935C205.423,296.687 206.551,297.815 208.807,299.695C210.687,301.576 211.816,302.704 212.568,303.456C213.32,303.832 213.696,304.208 214.448,304.208C214.824,304.208 215.2,304.208 215.576,303.832C216.328,303.456 217.08,302.704 217.832,301.952C218.961,300.823 219.713,300.071 220.089,299.319C220.465,298.943 220.465,298.191 220.841,297.815C220.841,297.439 220.465,296.687 220.089,295.935C219.713,295.559 218.209,294.054 215.952,292.174ZM240.02,313.609L253.181,320.378L252.805,320.754C251.677,323.387 250.549,325.267 249.421,326.771C248.293,328.651 246.412,329.403 243.78,328.651C243.028,328.275 241.524,327.899 240.396,327.523C239.267,326.771 237.387,326.019 234.755,324.515C231.37,323.011 229.114,321.882 227.986,320.754C226.858,320.002 225.73,319.25 225.354,318.122C224.977,317.746 224.977,316.994 224.977,316.242C224.977,315.489 224.977,314.737 225.354,313.609C225.73,312.857 226.482,310.977 227.986,308.721C228.738,306.84 229.49,305.712 229.866,304.584C230.618,303.832 230.994,303.08 231.746,302.704C232.875,301.576 234.379,301.199 236.259,301.952C238.515,302.328 241.524,303.832 245.66,305.712C247.917,307.216 249.797,307.968 250.925,308.721C252.429,309.849 253.557,310.601 254.31,311.353C255.438,312.481 255.814,313.985 255.438,315.489C255.062,316.242 254.686,317.37 253.934,318.498L248.293,315.866C248.669,315.113 248.669,314.737 248.669,314.737L248.669,313.985C248.293,313.609 247.917,313.233 246.789,312.481C246.036,312.105 244.532,311.353 242.652,310.225C240.772,309.097 239.267,308.721 238.515,308.344C237.387,307.968 236.635,307.968 236.259,307.968C235.883,307.968 235.507,308.344 235.131,308.721C234.755,309.473 234.003,310.225 233.251,311.729C232.499,313.233 232.122,314.361 231.746,315.113L231.746,316.618C232.122,316.994 232.499,317.37 232.875,317.746C233.251,318.122 234.755,318.874 237.387,320.378C240.02,321.506 241.524,322.258 242.276,322.634C242.652,323.011 243.404,323.011 243.78,323.011C244.156,323.011 244.156,323.011 244.532,322.634C244.908,322.634 245.284,322.258 245.284,321.882C245.284,321.506 245.66,321.506 245.66,321.13L238.139,317.37L240.02,313.609ZM278.001,338.805L277.249,335.044L263.711,332.036L261.079,335.044L253.934,333.164L269.352,315.113L279.129,317.37L285.146,340.685L278.001,338.805ZM276.121,330.156L273.864,321.13L272.736,321.13L266.719,327.899L276.121,330.156ZM291.163,320.002L302.444,319.25L314.478,333.916L315.23,333.916L313.726,318.122L320.495,317.746L321.999,338.805L310.717,339.557L298.684,324.891L297.932,324.891L299.06,340.685L292.667,341.061L291.163,320.002ZM343.434,311.353L349.451,308.344L352.835,314.737L365.621,308.344L362.237,301.576L368.254,298.567L377.655,317.37L372.014,320.378L368.254,313.609L355.468,320.002L358.852,326.771L352.835,330.156L343.434,311.353ZM370.886,296.311L387.808,280.141L391.193,283.901L378.783,295.559L381.039,297.815L392.697,286.533L395.705,289.918L384.048,301.199L386.304,303.456L398.714,291.798L402.474,295.183L385.552,311.353L370.886,296.311ZM407.739,289.166L390.817,276.756L399.842,264.346C401.722,261.338 403.226,259.458 403.603,259.082C403.979,258.329 404.731,257.953 405.483,257.577C406.235,257.201 406.987,257.201 408.115,257.577C408.867,257.953 409.995,258.329 411.5,259.458C412.628,260.21 413.756,260.962 414.132,261.714C414.508,262.09 414.884,262.842 414.884,263.594C414.884,264.346 414.508,265.098 414.132,266.227C414.884,265.098 416.012,264.722 416.764,264.346C417.14,264.346 417.893,264.722 418.269,264.722C419.021,265.098 419.773,265.851 421.277,266.603L422.781,267.731L419.397,272.996L418.269,272.243C417.516,271.867 416.764,271.115 416.388,271.115C415.636,270.739 415.26,270.739 414.884,270.739C414.508,270.739 414.508,271.115 414.132,271.491C413.756,271.491 413.38,272.243 412.628,273.372L407.363,280.893L411.5,283.901L407.739,289.166ZM402.85,277.884L408.115,270.363C408.867,269.235 409.619,268.107 409.619,268.107C409.995,267.731 409.995,267.355 409.995,267.355C409.995,266.979 409.995,266.603 409.619,266.227C409.619,265.851 409.243,265.851 408.491,265.098C408.115,264.722 407.363,264.722 406.987,264.722C406.611,264.346 406.611,264.346 406.235,264.722C405.859,264.722 405.859,265.098 405.483,265.098C405.483,265.474 404.731,266.227 403.979,267.355L398.714,274.876L402.85,277.884ZM406.611,251.937L415.26,230.126L419.773,232.006L413.756,247.8L416.388,248.928L422.405,233.886L426.542,235.766L420.901,250.808L423.909,251.937L430.302,236.142L434.815,238.023L426.166,259.834L406.611,251.937ZM171.202,142.505C173.082,137.993 174.586,135.36 175.715,133.856C176.843,131.6 178.723,130.848 180.603,131.224C182.107,131.224 184.364,131.976 187.372,133.48C190.381,134.984 192.637,136.112 193.765,136.864C195.269,138.369 196.021,140.249 195.269,142.505C194.517,144.385 193.389,147.394 191.509,151.53C189.628,155.667 188.124,158.675 187.372,160.18C185.868,162.436 183.988,163.188 182.107,162.812C180.603,162.436 178.347,161.684 175.338,160.556C172.33,159.052 170.074,157.923 168.946,156.795C167.441,155.667 167.065,153.787 167.817,151.154C168.193,149.65 169.322,146.642 171.202,142.505ZM176.467,144.762C174.962,147.77 174.21,149.65 174.21,150.402C173.834,151.154 174.21,151.907 174.586,152.659C175.338,153.035 176.467,153.787 178.347,154.539C179.851,155.291 180.603,155.667 181.355,155.667C182.483,156.043 183.236,155.291 183.988,154.163C184.364,153.411 185.116,151.907 186.244,149.274C187.372,146.642 188.124,145.138 188.5,144.385C188.876,143.633 188.876,142.881 188.876,142.129C188.5,141.753 188.124,141.377 187.748,141.001C187.372,140.625 186.62,140.249 185.492,139.873C183.988,139.121 182.86,138.745 182.107,138.369C181.355,138.369 180.979,137.993 180.603,138.369C179.851,138.369 179.475,138.745 179.099,139.497C178.347,140.249 177.595,141.753 176.467,144.762ZM182.107,121.822L189.628,112.797L204.295,116.934L198.278,103.02L205.799,93.994L221.969,108.284L217.832,113.173L205.799,102.268L205.047,103.02L211.816,119.942L208.431,124.079L190.757,119.566L190.005,120.318L202.414,130.848L198.278,135.736L182.107,121.822ZM224.601,107.156L213.32,89.106L225.73,80.833C227.986,79.328 229.49,78.576 230.242,78.2C232.499,77.072 234.003,77.072 235.131,77.448C236.259,77.824 237.763,79.328 239.267,81.961C240.772,84.217 241.524,85.721 241.524,86.849C241.524,87.978 241.524,88.73 240.772,89.482C240.396,90.234 239.644,90.986 238.891,91.738C238.139,92.114 236.635,93.242 234.379,94.747L227.61,99.259L230.242,103.396L224.601,107.156ZM224.601,94.747L231.37,90.234C232.875,89.482 233.627,88.73 233.627,88.73C234.003,88.354 234.003,88.354 234.379,87.978L234.379,86.849C234.379,86.473 234.003,86.097 233.627,85.345C233.251,84.593 232.875,84.217 232.499,84.217C232.122,83.841 231.746,83.841 231.37,83.841C230.994,83.841 230.242,84.593 228.362,85.345L221.593,89.858L224.601,94.747ZM268.976,85.345L265.967,82.337L252.429,86.849L251.677,90.986L244.908,93.242L248.669,69.175L258.446,66.167L275.745,82.713L268.976,85.345ZM262.207,78.576L255.814,72.183L254.31,72.559L253.181,81.585L262.207,78.576ZM274.992,61.278L286.274,60.526L298.684,75.944L299.436,75.568L297.932,59.774L304.701,59.022L306.581,80.833L294.923,81.585L282.514,66.167L281.761,66.543L283.266,82.337L276.497,83.089L274.992,61.278ZM310.717,59.774L318.991,61.278L324.631,71.055L332.529,63.534L341.178,65.038L326.888,76.696L325.76,84.217L318.991,83.089L320.495,75.568L310.717,59.774ZM362.989,74.44L372.39,80.457L373.518,100.011L373.894,100.387L382.544,86.849L388.184,90.61L376.527,108.66L366.749,102.644L365.997,82.713L365.245,82.337L356.972,95.875L351.331,92.49L362.989,74.44ZM394.201,128.215L395.705,124.455L386.304,113.925L382.544,114.677L377.655,109.037L401.346,103.772L408.115,111.293L399.09,133.856L394.201,128.215ZM397.962,119.942L401.346,111.293L400.594,110.165L391.569,112.421L397.962,119.942ZM419.397,125.583L424.285,136.112L414.508,147.77L429.55,147.77L434.439,158.675L414.884,167.701L412.252,161.684L426.918,155.291L426.542,154.163L408.491,153.411L406.235,148.522L417.516,134.608L417.14,133.48L402.474,140.249L399.842,134.232L419.397,125.583ZM435.943,166.573L440.08,190.264L435.191,191.016L432.183,173.718L428.798,174.47L431.806,190.64L427.294,191.392L424.285,175.222L420.901,175.974L423.909,193.272L419.021,194.024L414.508,170.333L435.943,166.573Z" style="fill:#b6b6b6;fill-rule:nonzero;"/>
        <g id="CorelEMF3" serif:id="CorelEMF">
        </g>
        <g id="CorelEMF4" serif:id="CorelEMF">
        </g>
        <g id="CorelEMF5" serif:id="CorelEMF">
            <path d="M375.798,238.654C315.562,280.803 312.063,228.087 265.631,234.87C266.559,234.989 267.511,235.227 268.439,235.584C274.246,237.893 277.078,244.485 274.746,250.292C272.437,256.075 265.869,258.907 260.062,256.599C254.255,254.29 251.422,247.722 253.731,241.915C255.873,236.512 266.583,230.919 271.009,228.468C322.13,200.123 326.295,251.149 375.798,238.654Z"/>
            <path d="M231.145,257.741C224.767,184.487 272.152,207.834 289.501,164.21C288.93,164.972 288.264,165.662 287.478,166.281C282.576,170.16 275.46,169.327 271.58,164.424C267.701,159.522 268.558,152.406 273.461,148.526C278.363,144.647 285.479,145.504 289.335,150.406C292.928,154.952 292.429,167.018 292.357,172.088C291.334,230.539 245.044,208.62 231.145,257.741Z"/>
            <path d="M286.931,122.918C353.569,154.024 309.659,183.392 338.742,220.234C338.385,219.353 338.099,218.401 337.957,217.425C337.076,211.237 341.336,205.502 347.524,204.597C353.712,203.693 359.447,207.977 360.352,214.165C361.256,220.353 356.972,226.088 350.784,226.993C345.049,227.826 334.863,221.376 330.507,218.758C280.41,188.652 322.511,159.522 286.931,122.918Z"/>
        </g>
    </g>
    <defs>
        <radialGradient id="_Radial1" cx="0" cy="0" r="1" gradientUnits="userSpaceOnUse" gradientTransform="matrix(2.19595e-14,-366.128,358.626,2.24189e-14,300,200.041)"><stop offset="0" style="stop-color:#fff;stop-opacity:1"/><stop offset="1" style="stop-color:#eee;stop-opacity:1"/></radialGradient>
    </defs>
</svg>
